<mxfile host="app.diagrams.net" modified="2022-08-03T06:43:57.313Z" agent="5.0 (Macintosh; Intel Mac OS X 10_15_7) AppleWebKit/537.36 (KHTML, like Gecko) Chrome/103.0.0.0 Safari/537.36" etag="SDdgiFciUWh2iOQWRFh_" version="20.0.4" type="github">
  <diagram id="1G8xQlf1kXc83v-TsdEQ" name="第 1 页">
    <mxGraphModel dx="2686" dy="1193" grid="0" gridSize="10" guides="1" tooltips="1" connect="1" arrows="1" fold="1" page="0" pageScale="1" pageWidth="827" pageHeight="1169" math="0" shadow="0">
      <root>
        <mxCell id="0" />
        <mxCell id="1" parent="0" />
        <mxCell id="di5l27wVPfo-70FuPS_U-1" value="Actor" style="shape=umlLifeline;perimeter=lifelinePerimeter;whiteSpace=wrap;html=1;container=1;collapsible=0;recursiveResize=0;outlineConnect=0;" vertex="1" parent="1">
          <mxGeometry x="-565" y="3" width="113" height="392" as="geometry" />
        </mxCell>
        <mxCell id="di5l27wVPfo-70FuPS_U-2" value="GameController" style="shape=umlLifeline;perimeter=lifelinePerimeter;whiteSpace=wrap;html=1;container=1;collapsible=0;recursiveResize=0;outlineConnect=0;" vertex="1" parent="1">
          <mxGeometry x="-352" y="3" width="113" height="392" as="geometry" />
        </mxCell>
        <mxCell id="di5l27wVPfo-70FuPS_U-3" value="" style="html=1;points=[];perimeter=orthogonalPerimeter;" vertex="1" parent="di5l27wVPfo-70FuPS_U-2">
          <mxGeometry x="51" y="84" width="9" height="80" as="geometry" />
        </mxCell>
        <mxCell id="di5l27wVPfo-70FuPS_U-172" value="return" style="html=1;verticalAlign=bottom;endArrow=open;dashed=1;endSize=8;rounded=0;" edge="1" parent="di5l27wVPfo-70FuPS_U-2" source="di5l27wVPfo-70FuPS_U-92">
          <mxGeometry relative="1" as="geometry">
            <mxPoint x="60" y="323" as="targetPoint" />
            <mxPoint x="268" y="323" as="sourcePoint" />
          </mxGeometry>
        </mxCell>
        <mxCell id="di5l27wVPfo-70FuPS_U-4" value="1. initGameDetail（初始化游戏活动）" style="html=1;verticalAlign=bottom;endArrow=block;entryX=0;entryY=0;rounded=0;" edge="1" target="di5l27wVPfo-70FuPS_U-3" parent="1" source="di5l27wVPfo-70FuPS_U-1">
          <mxGeometry relative="1" as="geometry">
            <mxPoint x="-548" y="82" as="sourcePoint" />
          </mxGeometry>
        </mxCell>
        <mxCell id="di5l27wVPfo-70FuPS_U-8" value="&lt;div style=&quot;text-align: start;&quot;&gt;&lt;font face=&quot;monospace&quot; color=&quot;#ba0000&quot;&gt;&lt;span style=&quot;font-size: 0px;&quot;&gt;GameApiService&lt;/span&gt;&lt;/font&gt;&lt;br&gt;&lt;/div&gt;" style="shape=umlLifeline;perimeter=lifelinePerimeter;whiteSpace=wrap;html=1;container=1;collapsible=0;recursiveResize=0;outlineConnect=0;" vertex="1" parent="1">
          <mxGeometry x="-39" y="-8" width="125" height="392" as="geometry" />
        </mxCell>
        <mxCell id="di5l27wVPfo-70FuPS_U-9" value="" style="html=1;points=[];perimeter=orthogonalPerimeter;" vertex="1" parent="di5l27wVPfo-70FuPS_U-8">
          <mxGeometry x="57.5" y="98" width="10" height="80" as="geometry" />
        </mxCell>
        <mxCell id="di5l27wVPfo-70FuPS_U-11" value="GameApiService" style="text;whiteSpace=wrap;html=1;" vertex="1" parent="di5l27wVPfo-70FuPS_U-8">
          <mxGeometry x="7" y="6" width="118" height="36" as="geometry" />
        </mxCell>
        <mxCell id="di5l27wVPfo-70FuPS_U-35" style="edgeStyle=orthogonalEdgeStyle;rounded=0;orthogonalLoop=1;jettySize=auto;html=1;" edge="1" parent="di5l27wVPfo-70FuPS_U-8">
          <mxGeometry relative="1" as="geometry">
            <Array as="points">
              <mxPoint x="73" y="217" />
            </Array>
            <mxPoint x="73" y="217" as="sourcePoint" />
            <mxPoint x="269" y="217" as="targetPoint" />
          </mxGeometry>
        </mxCell>
        <mxCell id="di5l27wVPfo-70FuPS_U-37" value="&lt;span style=&quot;font-size: 12px;&quot;&gt;1.2.1 initGameDetail&lt;/span&gt;" style="edgeLabel;html=1;align=center;verticalAlign=middle;resizable=0;points=[];" vertex="1" connectable="0" parent="di5l27wVPfo-70FuPS_U-35">
          <mxGeometry x="-0.0588" y="2" relative="1" as="geometry">
            <mxPoint as="offset" />
          </mxGeometry>
        </mxCell>
        <mxCell id="di5l27wVPfo-70FuPS_U-12" style="edgeStyle=orthogonalEdgeStyle;rounded=0;orthogonalLoop=1;jettySize=auto;html=1;entryX=-0.25;entryY=0.125;entryDx=0;entryDy=0;entryPerimeter=0;" edge="1" parent="1" source="di5l27wVPfo-70FuPS_U-3" target="di5l27wVPfo-70FuPS_U-9">
          <mxGeometry relative="1" as="geometry">
            <Array as="points">
              <mxPoint x="-219" y="99" />
              <mxPoint x="-219" y="99" />
            </Array>
          </mxGeometry>
        </mxCell>
        <mxCell id="di5l27wVPfo-70FuPS_U-13" value="1.1 getGameDetail(获取操作前的活动信息--记录日志)" style="text;html=1;align=center;verticalAlign=middle;resizable=0;points=[];autosize=1;strokeColor=none;fillColor=none;" vertex="1" parent="1">
          <mxGeometry x="-295" y="72" width="302" height="26" as="geometry" />
        </mxCell>
        <mxCell id="di5l27wVPfo-70FuPS_U-15" value="return（!respBefore.isSuccess()）" style="html=1;verticalAlign=bottom;endArrow=open;dashed=1;endSize=8;exitX=-0.05;exitY=0.7;rounded=0;exitDx=0;exitDy=0;exitPerimeter=0;entryX=1.111;entryY=0.725;entryDx=0;entryDy=0;entryPerimeter=0;" edge="1" parent="1" source="di5l27wVPfo-70FuPS_U-9" target="di5l27wVPfo-70FuPS_U-3">
          <mxGeometry relative="1" as="geometry">
            <mxPoint x="-290" y="140" as="targetPoint" />
            <mxPoint x="-291" y="173" as="sourcePoint" />
          </mxGeometry>
        </mxCell>
        <mxCell id="di5l27wVPfo-70FuPS_U-16" value="" style="html=1;points=[];perimeter=orthogonalPerimeter;" vertex="1" parent="1">
          <mxGeometry x="-297" y="192" width="9" height="80" as="geometry" />
        </mxCell>
        <mxCell id="di5l27wVPfo-70FuPS_U-17" value="" style="html=1;points=[];perimeter=orthogonalPerimeter;" vertex="1" parent="1">
          <mxGeometry x="20" y="195" width="12.5" height="80" as="geometry" />
        </mxCell>
        <mxCell id="di5l27wVPfo-70FuPS_U-18" style="edgeStyle=orthogonalEdgeStyle;rounded=0;orthogonalLoop=1;jettySize=auto;html=1;entryX=-0.25;entryY=0.125;entryDx=0;entryDy=0;entryPerimeter=0;" edge="1" parent="1" source="di5l27wVPfo-70FuPS_U-16" target="di5l27wVPfo-70FuPS_U-17">
          <mxGeometry relative="1" as="geometry">
            <Array as="points">
              <mxPoint x="-215" y="204" />
              <mxPoint x="-215" y="204" />
            </Array>
          </mxGeometry>
        </mxCell>
        <mxCell id="di5l27wVPfo-70FuPS_U-38" value="&lt;span style=&quot;font-size: 12px;&quot;&gt;1.2 initGameDetail（主要处理逻辑）&lt;/span&gt;" style="edgeLabel;html=1;align=center;verticalAlign=middle;resizable=0;points=[];" vertex="1" connectable="0" parent="di5l27wVPfo-70FuPS_U-18">
          <mxGeometry x="0.461" y="1" relative="1" as="geometry">
            <mxPoint x="-77" y="-1" as="offset" />
          </mxGeometry>
        </mxCell>
        <mxCell id="di5l27wVPfo-70FuPS_U-20" value="return（!respBefore.isSuccess()）" style="html=1;verticalAlign=bottom;endArrow=open;dashed=1;endSize=8;exitX=-0.05;exitY=0.7;rounded=0;exitDx=0;exitDy=0;exitPerimeter=0;entryX=1.111;entryY=0.725;entryDx=0;entryDy=0;entryPerimeter=0;" edge="1" parent="1" source="di5l27wVPfo-70FuPS_U-17" target="di5l27wVPfo-70FuPS_U-16">
          <mxGeometry relative="1" as="geometry">
            <mxPoint x="-286" y="245" as="targetPoint" />
            <mxPoint x="-287" y="278" as="sourcePoint" />
          </mxGeometry>
        </mxCell>
        <mxCell id="di5l27wVPfo-70FuPS_U-21" value="&lt;div style=&quot;text-align: start;&quot;&gt;GameServiceImpl&lt;br&gt;&lt;/div&gt;" style="shape=umlLifeline;perimeter=lifelinePerimeter;whiteSpace=wrap;html=1;container=1;collapsible=0;recursiveResize=0;outlineConnect=0;" vertex="1" parent="1">
          <mxGeometry x="596" y="-21" width="125" height="1012" as="geometry" />
        </mxCell>
        <mxCell id="di5l27wVPfo-70FuPS_U-22" value="" style="html=1;points=[];perimeter=orthogonalPerimeter;" vertex="1" parent="di5l27wVPfo-70FuPS_U-21">
          <mxGeometry x="57.5" y="98" width="10" height="80" as="geometry" />
        </mxCell>
        <mxCell id="di5l27wVPfo-70FuPS_U-24" value="" style="html=1;points=[];perimeter=orthogonalPerimeter;" vertex="1" parent="di5l27wVPfo-70FuPS_U-21">
          <mxGeometry x="57.5" y="233" width="10" height="481" as="geometry" />
        </mxCell>
        <mxCell id="di5l27wVPfo-70FuPS_U-39" value="" style="html=1;points=[];perimeter=orthogonalPerimeter;" vertex="1" parent="di5l27wVPfo-70FuPS_U-21">
          <mxGeometry x="63" y="273" width="10" height="153" as="geometry" />
        </mxCell>
        <mxCell id="di5l27wVPfo-70FuPS_U-40" value="1.2.1.1.1.1 getGameDetail&lt;br&gt;(编辑，查询已存在游戏)&amp;nbsp;" style="edgeStyle=orthogonalEdgeStyle;html=1;align=left;spacingLeft=2;endArrow=block;rounded=0;entryX=1;entryY=0;" edge="1" target="di5l27wVPfo-70FuPS_U-39" parent="di5l27wVPfo-70FuPS_U-21">
          <mxGeometry relative="1" as="geometry">
            <mxPoint x="66" y="243" as="sourcePoint" />
            <Array as="points">
              <mxPoint x="96" y="243" />
            </Array>
          </mxGeometry>
        </mxCell>
        <mxCell id="di5l27wVPfo-70FuPS_U-67" value="return（GameDetailDTO）" style="html=1;verticalAlign=bottom;endArrow=open;dashed=1;endSize=8;rounded=0;exitX=0.05;exitY=0.7;exitDx=0;exitDy=0;exitPerimeter=0;" edge="1" parent="di5l27wVPfo-70FuPS_U-21" source="di5l27wVPfo-70FuPS_U-59">
          <mxGeometry x="-0.1715" y="-3" relative="1" as="geometry">
            <mxPoint x="905" y="410" as="sourcePoint" />
            <mxPoint x="79" y="414" as="targetPoint" />
            <mxPoint as="offset" />
          </mxGeometry>
        </mxCell>
        <mxCell id="di5l27wVPfo-70FuPS_U-90" value="1.2.1.1.1.4 clearGmeDetailRedis (清除游戏缓存)" style="edgeStyle=orthogonalEdgeStyle;html=1;align=left;spacingLeft=2;endArrow=block;rounded=0;startArrow=none;" edge="1" parent="di5l27wVPfo-70FuPS_U-21" source="di5l27wVPfo-70FuPS_U-89">
          <mxGeometry x="0.1259" y="10" relative="1" as="geometry">
            <mxPoint x="68" y="640" as="sourcePoint" />
            <Array as="points">
              <mxPoint x="134" y="640" />
              <mxPoint x="134" y="662" />
            </Array>
            <mxPoint x="82" y="662" as="targetPoint" />
            <mxPoint as="offset" />
          </mxGeometry>
        </mxCell>
        <mxCell id="di5l27wVPfo-70FuPS_U-89" value="" style="html=1;points=[];perimeter=orthogonalPerimeter;" vertex="1" parent="di5l27wVPfo-70FuPS_U-21">
          <mxGeometry x="63" y="633" width="10" height="40" as="geometry" />
        </mxCell>
        <mxCell id="di5l27wVPfo-70FuPS_U-121" value="" style="html=1;points=[];perimeter=orthogonalPerimeter;" vertex="1" parent="di5l27wVPfo-70FuPS_U-21">
          <mxGeometry x="57.5" y="758" width="10" height="254" as="geometry" />
        </mxCell>
        <mxCell id="di5l27wVPfo-70FuPS_U-26" value="&lt;div style=&quot;text-align: start;&quot;&gt;&lt;font face=&quot;monospace&quot; color=&quot;#ba0000&quot;&gt;&lt;span style=&quot;font-size: 0px;&quot;&gt;GameApiService&lt;/span&gt;&lt;/font&gt;&lt;br&gt;&lt;/div&gt;" style="shape=umlLifeline;perimeter=lifelinePerimeter;whiteSpace=wrap;html=1;container=1;collapsible=0;recursiveResize=0;outlineConnect=0;" vertex="1" parent="1">
          <mxGeometry x="987" y="-32" width="177" height="965" as="geometry" />
        </mxCell>
        <mxCell id="di5l27wVPfo-70FuPS_U-27" value="" style="html=1;points=[];perimeter=orthogonalPerimeter;" vertex="1" parent="di5l27wVPfo-70FuPS_U-26">
          <mxGeometry x="84" y="279" width="10" height="80" as="geometry" />
        </mxCell>
        <mxCell id="di5l27wVPfo-70FuPS_U-28" value="GameRuleService" style="text;whiteSpace=wrap;html=1;" vertex="1" parent="di5l27wVPfo-70FuPS_U-26">
          <mxGeometry x="18" y="5" width="118" height="36" as="geometry" />
        </mxCell>
        <mxCell id="di5l27wVPfo-70FuPS_U-145" value="" style="html=1;points=[];perimeter=orthogonalPerimeter;" vertex="1" parent="di5l27wVPfo-70FuPS_U-26">
          <mxGeometry x="83.5" y="792" width="10" height="61" as="geometry" />
        </mxCell>
        <mxCell id="di5l27wVPfo-70FuPS_U-155" value="return（GameDetailDTO）" style="html=1;verticalAlign=bottom;endArrow=open;dashed=1;endSize=8;rounded=0;exitX=0.05;exitY=0.7;exitDx=0;exitDy=0;exitPerimeter=0;fontStyle=1" edge="1" parent="di5l27wVPfo-70FuPS_U-26">
          <mxGeometry x="0.7126" y="-2" relative="1" as="geometry">
            <mxPoint x="506" y="949" as="sourcePoint" />
            <mxPoint x="-322" y="951" as="targetPoint" />
            <mxPoint as="offset" />
          </mxGeometry>
        </mxCell>
        <mxCell id="di5l27wVPfo-70FuPS_U-30" value="&lt;div style=&quot;text-align: start;&quot;&gt;&lt;font face=&quot;monospace&quot; color=&quot;#ba0000&quot;&gt;&lt;span style=&quot;font-size: 0px;&quot;&gt;GameApiService&lt;/span&gt;&lt;/font&gt;&lt;br&gt;&lt;/div&gt;" style="shape=umlLifeline;perimeter=lifelinePerimeter;whiteSpace=wrap;html=1;container=1;collapsible=0;recursiveResize=0;outlineConnect=0;" vertex="1" parent="1">
          <mxGeometry x="1203" y="-34" width="173" height="958" as="geometry" />
        </mxCell>
        <mxCell id="di5l27wVPfo-70FuPS_U-32" value="GameRuleConditionService" style="text;whiteSpace=wrap;html=1;" vertex="1" parent="di5l27wVPfo-70FuPS_U-30">
          <mxGeometry x="7" y="6" width="118" height="36" as="geometry" />
        </mxCell>
        <mxCell id="di5l27wVPfo-70FuPS_U-33" value="" style="html=1;points=[];perimeter=orthogonalPerimeter;" vertex="1" parent="di5l27wVPfo-70FuPS_U-30">
          <mxGeometry x="81.5" y="326" width="10" height="80" as="geometry" />
        </mxCell>
        <mxCell id="di5l27wVPfo-70FuPS_U-148" value="" style="html=1;points=[];perimeter=orthogonalPerimeter;" vertex="1" parent="di5l27wVPfo-70FuPS_U-30">
          <mxGeometry x="81.5" y="817" width="10" height="80" as="geometry" />
        </mxCell>
        <mxCell id="di5l27wVPfo-70FuPS_U-43" value="&lt;div style=&quot;text-align: start;&quot;&gt;&lt;span style=&quot;color: rgba(0, 0, 0, 0); font-family: monospace; font-size: 0px;&quot;&gt;%3CmxGraphModel%3E%3Croot%3E%3CmxCell%20id%3D%220%22%2F%3E%3CmxCell%20id%3D%221%22%20parent%3D%220%22%2F%3E%3CmxCell%20id%3D%222%22%20value%3D%22%22%20style%3D%22html%3D1%3Bpoints%3D%5B%5D%3Bperimeter%3DorthogonalPerimeter%3B%22%20vertex%3D%221%22%20parent%3D%221%22%3E%3CmxGeometry%20x%3D%22884.5%22%20y%3D%22270%22%20width%3D%2210%22%20height%3D%2280%22%20as%3D%22geometry%22%2F%3E%3C%2FmxCell%3E%3C%2Froot%3E%3C%2FmxGraphModel%3E&lt;/span&gt;&lt;br&gt;&lt;/div&gt;&lt;span style=&quot;color: rgba(0, 0, 0, 0); font-family: monospace; font-size: 0px; text-align: start;&quot;&gt;%3CmxGraphModel%3E%3Croot%3E%3CmxCell%20id%3D%220%22%2F%3E%3CmxCell%20id%3D%221%22%20parent%3D%220%22%2F%3E%3CmxCell%20id%3D%222%22%20value%3D%22%22%20style%3D%22html%3D1%3Bpoints%3D%5B%5D%3Bperimeter%3DorthogonalPerimeter%3B%22%20vertex%3D%221%22%20parent%3D%221%22%3E%3CmxGeometry%20x%3D%22884.5%22%20y%3D%22270%22%20width%3D%2210%22%20height%3D%2280%22%20as%3D%22geometry%22%2F%3E%3C%2FmxCell%3E%3C%2Froot%3E%3C%2FmxGraphModel%3E&lt;/span&gt;" style="shape=umlLifeline;perimeter=lifelinePerimeter;whiteSpace=wrap;html=1;container=1;collapsible=0;recursiveResize=0;outlineConnect=0;" vertex="1" parent="1">
          <mxGeometry x="827" y="-30" width="125" height="957" as="geometry" />
        </mxCell>
        <mxCell id="di5l27wVPfo-70FuPS_U-45" value="GameExtService" style="text;whiteSpace=wrap;html=1;" vertex="1" parent="di5l27wVPfo-70FuPS_U-43">
          <mxGeometry x="7" y="6" width="118" height="36" as="geometry" />
        </mxCell>
        <mxCell id="di5l27wVPfo-70FuPS_U-29" value="" style="html=1;points=[];perimeter=orthogonalPerimeter;" vertex="1" parent="di5l27wVPfo-70FuPS_U-43">
          <mxGeometry x="57.5" y="300" width="10" height="80" as="geometry" />
        </mxCell>
        <mxCell id="di5l27wVPfo-70FuPS_U-142" value="" style="html=1;points=[];perimeter=orthogonalPerimeter;" vertex="1" parent="di5l27wVPfo-70FuPS_U-43">
          <mxGeometry x="57.5" y="782" width="10" height="68" as="geometry" />
        </mxCell>
        <mxCell id="di5l27wVPfo-70FuPS_U-143" style="edgeStyle=orthogonalEdgeStyle;rounded=0;orthogonalLoop=1;jettySize=auto;html=1;entryX=0.25;entryY=0.463;entryDx=0;entryDy=0;entryPerimeter=0;" edge="1" parent="di5l27wVPfo-70FuPS_U-43">
          <mxGeometry relative="1" as="geometry">
            <mxPoint x="-158" y="786" as="sourcePoint" />
            <mxPoint x="60" y="786.04" as="targetPoint" />
            <Array as="points">
              <mxPoint x="-105" y="786" />
              <mxPoint x="-105" y="786" />
            </Array>
          </mxGeometry>
        </mxCell>
        <mxCell id="di5l27wVPfo-70FuPS_U-144" value="1.2.1.1.2.1&amp;nbsp; list" style="edgeLabel;html=1;align=center;verticalAlign=middle;resizable=0;points=[];" vertex="1" connectable="0" parent="di5l27wVPfo-70FuPS_U-143">
          <mxGeometry x="-0.3575" relative="1" as="geometry">
            <mxPoint as="offset" />
          </mxGeometry>
        </mxCell>
        <mxCell id="di5l27wVPfo-70FuPS_U-47" style="edgeStyle=orthogonalEdgeStyle;rounded=0;orthogonalLoop=1;jettySize=auto;html=1;entryX=0.25;entryY=0.463;entryDx=0;entryDy=0;entryPerimeter=0;" edge="1" parent="1" source="di5l27wVPfo-70FuPS_U-39">
          <mxGeometry relative="1" as="geometry">
            <mxPoint x="887" y="274.03999999999996" as="targetPoint" />
            <Array as="points">
              <mxPoint x="722" y="274" />
              <mxPoint x="722" y="274" />
            </Array>
          </mxGeometry>
        </mxCell>
        <mxCell id="di5l27wVPfo-70FuPS_U-49" value="1.2.1.1.1.1.1&amp;nbsp; list（游戏扩展）" style="edgeLabel;html=1;align=center;verticalAlign=middle;resizable=0;points=[];" vertex="1" connectable="0" parent="di5l27wVPfo-70FuPS_U-47">
          <mxGeometry x="-0.3575" relative="1" as="geometry">
            <mxPoint x="29" y="-2" as="offset" />
          </mxGeometry>
        </mxCell>
        <mxCell id="di5l27wVPfo-70FuPS_U-50" value="游戏活动扩展信息（tab_game_ext）" style="text;html=1;align=center;verticalAlign=middle;resizable=0;points=[];autosize=1;strokeColor=none;fillColor=none;" vertex="1" parent="1">
          <mxGeometry x="753" y="-67" width="214" height="26" as="geometry" />
        </mxCell>
        <mxCell id="di5l27wVPfo-70FuPS_U-52" style="edgeStyle=orthogonalEdgeStyle;rounded=0;orthogonalLoop=1;jettySize=auto;html=1;entryX=0;entryY=0.675;entryDx=0;entryDy=0;entryPerimeter=0;" edge="1" parent="1" target="di5l27wVPfo-70FuPS_U-27">
          <mxGeometry relative="1" as="geometry">
            <mxPoint x="671" y="300" as="sourcePoint" />
            <mxPoint x="1008" y="294" as="targetPoint" />
            <Array as="points" />
          </mxGeometry>
        </mxCell>
        <mxCell id="di5l27wVPfo-70FuPS_U-53" value="1.2.1.1.1.1.2 getOne（规则）&amp;nbsp;" style="edgeLabel;html=1;align=center;verticalAlign=middle;resizable=0;points=[];" vertex="1" connectable="0" parent="di5l27wVPfo-70FuPS_U-52">
          <mxGeometry x="0.3947" y="-1" relative="1" as="geometry">
            <mxPoint x="30" y="-3" as="offset" />
          </mxGeometry>
        </mxCell>
        <mxCell id="di5l27wVPfo-70FuPS_U-51" value="游戏规则信息（tab_game_rule）" style="text;html=1;align=center;verticalAlign=middle;resizable=0;points=[];autosize=1;strokeColor=none;fillColor=none;" vertex="1" parent="1">
          <mxGeometry x="972" y="-68" width="194" height="26" as="geometry" />
        </mxCell>
        <mxCell id="di5l27wVPfo-70FuPS_U-55" style="edgeStyle=orthogonalEdgeStyle;rounded=0;orthogonalLoop=1;jettySize=auto;html=1;" edge="1" parent="1" source="di5l27wVPfo-70FuPS_U-39" target="di5l27wVPfo-70FuPS_U-30">
          <mxGeometry relative="1" as="geometry">
            <mxPoint x="1266" y="330" as="targetPoint" />
            <Array as="points">
              <mxPoint x="871" y="324" />
              <mxPoint x="871" y="324" />
            </Array>
          </mxGeometry>
        </mxCell>
        <mxCell id="di5l27wVPfo-70FuPS_U-56" value="1.2.1.1.1.1.3 list（门槛条件）" style="edgeLabel;html=1;align=center;verticalAlign=middle;resizable=0;points=[];" vertex="1" connectable="0" parent="di5l27wVPfo-70FuPS_U-55">
          <mxGeometry x="0.6364" y="-1" relative="1" as="geometry">
            <mxPoint as="offset" />
          </mxGeometry>
        </mxCell>
        <mxCell id="di5l27wVPfo-70FuPS_U-57" value="游戏规则-参与门槛（tab_game_rule_condition）" style="text;html=1;align=center;verticalAlign=middle;resizable=0;points=[];autosize=1;strokeColor=none;fillColor=none;" vertex="1" parent="1">
          <mxGeometry x="1177" y="-68" width="277" height="26" as="geometry" />
        </mxCell>
        <mxCell id="di5l27wVPfo-70FuPS_U-58" value="&lt;div style=&quot;text-align: start;&quot;&gt;&lt;font face=&quot;monospace&quot; color=&quot;#ba0000&quot;&gt;&lt;span style=&quot;font-size: 0px;&quot;&gt;GameApiService&lt;/span&gt;&lt;/font&gt;&lt;br&gt;&lt;/div&gt;" style="shape=umlLifeline;perimeter=lifelinePerimeter;whiteSpace=wrap;html=1;container=1;collapsible=0;recursiveResize=0;outlineConnect=0;" vertex="1" parent="1">
          <mxGeometry x="1422" y="-34" width="171" height="1242" as="geometry" />
        </mxCell>
        <mxCell id="di5l27wVPfo-70FuPS_U-59" value="" style="html=1;points=[];perimeter=orthogonalPerimeter;" vertex="1" parent="di5l27wVPfo-70FuPS_U-58">
          <mxGeometry x="80.5" y="369" width="10" height="80" as="geometry" />
        </mxCell>
        <mxCell id="di5l27wVPfo-70FuPS_U-60" value="GamePrizeService" style="text;whiteSpace=wrap;html=1;" vertex="1" parent="di5l27wVPfo-70FuPS_U-58">
          <mxGeometry x="18" y="5" width="118" height="36" as="geometry" />
        </mxCell>
        <mxCell id="di5l27wVPfo-70FuPS_U-151" value="" style="html=1;points=[];perimeter=orthogonalPerimeter;" vertex="1" parent="di5l27wVPfo-70FuPS_U-58">
          <mxGeometry x="80.5" y="839" width="10" height="190" as="geometry" />
        </mxCell>
        <mxCell id="di5l27wVPfo-70FuPS_U-159" value="" style="html=1;points=[];perimeter=orthogonalPerimeter;" vertex="1" parent="di5l27wVPfo-70FuPS_U-58">
          <mxGeometry x="80.5" y="1082" width="10" height="80" as="geometry" />
        </mxCell>
        <mxCell id="di5l27wVPfo-70FuPS_U-166" style="edgeStyle=orthogonalEdgeStyle;rounded=0;orthogonalLoop=1;jettySize=auto;html=1;entryX=0.25;entryY=0.063;entryDx=0;entryDy=0;entryPerimeter=0;exitX=0.95;exitY=0.353;exitDx=0;exitDy=0;exitPerimeter=0;" edge="1" parent="di5l27wVPfo-70FuPS_U-58" source="di5l27wVPfo-70FuPS_U-165">
          <mxGeometry relative="1" as="geometry">
            <mxPoint x="-1557" y="1089" as="sourcePoint" />
            <mxPoint x="83.5" y="1089" as="targetPoint" />
          </mxGeometry>
        </mxCell>
        <mxCell id="di5l27wVPfo-70FuPS_U-169" value="1.2.1.1.3 库存提醒开关重置--updateBatchById(批量更新游戏奖励信息)&amp;nbsp;" style="edgeLabel;html=1;align=center;verticalAlign=middle;resizable=0;points=[];" vertex="1" connectable="0" parent="di5l27wVPfo-70FuPS_U-166">
          <mxGeometry x="-0.8251" y="4" relative="1" as="geometry">
            <mxPoint x="131" y="5" as="offset" />
          </mxGeometry>
        </mxCell>
        <mxCell id="di5l27wVPfo-70FuPS_U-63" style="edgeStyle=orthogonalEdgeStyle;rounded=0;orthogonalLoop=1;jettySize=auto;html=1;entryX=-0.25;entryY=0.25;entryDx=0;entryDy=0;entryPerimeter=0;" edge="1" parent="1" source="di5l27wVPfo-70FuPS_U-24" target="di5l27wVPfo-70FuPS_U-59">
          <mxGeometry relative="1" as="geometry">
            <mxPoint x="1485" y="348" as="targetPoint" />
            <Array as="points">
              <mxPoint x="868" y="355" />
              <mxPoint x="868" y="355" />
            </Array>
          </mxGeometry>
        </mxCell>
        <mxCell id="di5l27wVPfo-70FuPS_U-64" value="1.2.1.1.1.1.4 list （奖品信息）" style="edgeLabel;html=1;align=center;verticalAlign=middle;resizable=0;points=[];" vertex="1" connectable="0" parent="di5l27wVPfo-70FuPS_U-63">
          <mxGeometry x="0.76" y="-1" relative="1" as="geometry">
            <mxPoint as="offset" />
          </mxGeometry>
        </mxCell>
        <mxCell id="di5l27wVPfo-70FuPS_U-65" value="游戏奖品信息（tab_game_prize）" style="text;html=1;align=center;verticalAlign=middle;resizable=0;points=[];autosize=1;strokeColor=none;fillColor=none;" vertex="1" parent="1">
          <mxGeometry x="1440" y="-67" width="200" height="26" as="geometry" />
        </mxCell>
        <mxCell id="di5l27wVPfo-70FuPS_U-70" value="&lt;div style=&quot;text-align: start;&quot;&gt;&lt;font face=&quot;monospace&quot; color=&quot;#ba0000&quot;&gt;&lt;span style=&quot;font-size: 0px;&quot;&gt;GameApiService&lt;/span&gt;&lt;/font&gt;&lt;br&gt;&lt;/div&gt;" style="shape=umlLifeline;perimeter=lifelinePerimeter;whiteSpace=wrap;html=1;container=1;collapsible=0;recursiveResize=0;outlineConnect=0;" vertex="1" parent="1">
          <mxGeometry x="1615" y="-41" width="171" height="956" as="geometry" />
        </mxCell>
        <mxCell id="di5l27wVPfo-70FuPS_U-71" value="" style="html=1;points=[];perimeter=orthogonalPerimeter;" vertex="1" parent="di5l27wVPfo-70FuPS_U-70">
          <mxGeometry x="80.5" y="439" width="10" height="80" as="geometry" />
        </mxCell>
        <mxCell id="di5l27wVPfo-70FuPS_U-72" value="GameTemplateService" style="text;whiteSpace=wrap;html=1;" vertex="1" parent="di5l27wVPfo-70FuPS_U-70">
          <mxGeometry x="18" y="5" width="118" height="36" as="geometry" />
        </mxCell>
        <mxCell id="di5l27wVPfo-70FuPS_U-74" style="edgeStyle=orthogonalEdgeStyle;rounded=0;orthogonalLoop=1;jettySize=auto;html=1;" edge="1" parent="1" source="di5l27wVPfo-70FuPS_U-24" target="di5l27wVPfo-70FuPS_U-70">
          <mxGeometry relative="1" as="geometry">
            <mxPoint x="1609" y="412" as="targetPoint" />
            <Array as="points">
              <mxPoint x="1098" y="434" />
              <mxPoint x="1098" y="434" />
            </Array>
          </mxGeometry>
        </mxCell>
        <mxCell id="di5l27wVPfo-70FuPS_U-75" value="&lt;span style=&quot;text-align: left;&quot;&gt;1.2.1.1.1.2&lt;/span&gt;&amp;nbsp;getOne（新增，查询游戏模板）" style="edgeLabel;html=1;align=center;verticalAlign=middle;resizable=0;points=[];" vertex="1" connectable="0" parent="di5l27wVPfo-70FuPS_U-74">
          <mxGeometry x="-0.8755" y="-2" relative="1" as="geometry">
            <mxPoint x="73" y="-3" as="offset" />
          </mxGeometry>
        </mxCell>
        <mxCell id="di5l27wVPfo-70FuPS_U-76" value="游戏模板（tab_game_template）" style="text;html=1;align=center;verticalAlign=middle;resizable=0;points=[];autosize=1;strokeColor=none;fillColor=none;" vertex="1" parent="1">
          <mxGeometry x="1632" y="-67" width="196" height="26" as="geometry" />
        </mxCell>
        <mxCell id="di5l27wVPfo-70FuPS_U-77" value="&lt;div style=&quot;text-align: start;&quot;&gt;&lt;font face=&quot;monospace&quot; color=&quot;#ba0000&quot;&gt;&lt;span style=&quot;font-size: 0px;&quot;&gt;GameApiService&lt;/span&gt;&lt;/font&gt;&lt;br&gt;&lt;/div&gt;" style="shape=umlLifeline;perimeter=lifelinePerimeter;whiteSpace=wrap;html=1;container=1;collapsible=0;recursiveResize=0;outlineConnect=0;" vertex="1" parent="1">
          <mxGeometry x="1817" y="-40" width="171" height="714" as="geometry" />
        </mxCell>
        <mxCell id="di5l27wVPfo-70FuPS_U-78" value="" style="html=1;points=[];perimeter=orthogonalPerimeter;" vertex="1" parent="di5l27wVPfo-70FuPS_U-77">
          <mxGeometry x="80.5" y="538" width="10" height="80" as="geometry" />
        </mxCell>
        <mxCell id="di5l27wVPfo-70FuPS_U-79" value="&lt;font face=&quot;monospace&quot; color=&quot;#ba0000&quot;&gt;&lt;span style=&quot;font-size: 0px;&quot;&gt;GameInitChain&lt;/span&gt;&lt;/font&gt;" style="text;whiteSpace=wrap;html=1;" vertex="1" parent="di5l27wVPfo-70FuPS_U-77">
          <mxGeometry x="18" y="5" width="118" height="36" as="geometry" />
        </mxCell>
        <mxCell id="di5l27wVPfo-70FuPS_U-83" value="GameInitChain" style="text;whiteSpace=wrap;html=1;" vertex="1" parent="di5l27wVPfo-70FuPS_U-77">
          <mxGeometry x="31.5" y="11" width="108" height="36" as="geometry" />
        </mxCell>
        <mxCell id="di5l27wVPfo-70FuPS_U-87" value="" style="html=1;verticalAlign=bottom;endArrow=open;dashed=1;endSize=8;rounded=0;" edge="1" parent="di5l27wVPfo-70FuPS_U-77" target="di5l27wVPfo-70FuPS_U-21">
          <mxGeometry relative="1" as="geometry">
            <mxPoint x="76" y="604" as="sourcePoint" />
            <mxPoint x="-940" y="622" as="targetPoint" />
          </mxGeometry>
        </mxCell>
        <mxCell id="di5l27wVPfo-70FuPS_U-84" value="游戏责任链" style="text;html=1;align=center;verticalAlign=middle;resizable=0;points=[];autosize=1;strokeColor=none;fillColor=none;" vertex="1" parent="1">
          <mxGeometry x="1844" y="-67" width="78" height="26" as="geometry" />
        </mxCell>
        <mxCell id="di5l27wVPfo-70FuPS_U-85" style="edgeStyle=orthogonalEdgeStyle;rounded=0;orthogonalLoop=1;jettySize=auto;html=1;entryX=-0.15;entryY=0.213;entryDx=0;entryDy=0;entryPerimeter=0;" edge="1" parent="1" source="di5l27wVPfo-70FuPS_U-24" target="di5l27wVPfo-70FuPS_U-78">
          <mxGeometry relative="1" as="geometry">
            <Array as="points">
              <mxPoint x="1104" y="515" />
              <mxPoint x="1104" y="515" />
            </Array>
          </mxGeometry>
        </mxCell>
        <mxCell id="di5l27wVPfo-70FuPS_U-86" value="&lt;span style=&quot;text-align: left;&quot;&gt;1.2.1.1.1.3&amp;nbsp;&lt;/span&gt;execDefault (初始化责任链)" style="edgeLabel;html=1;align=center;verticalAlign=middle;resizable=0;points=[];" vertex="1" connectable="0" parent="di5l27wVPfo-70FuPS_U-85">
          <mxGeometry x="-0.9458" y="-1" relative="1" as="geometry">
            <mxPoint x="95" y="-1" as="offset" />
          </mxGeometry>
        </mxCell>
        <mxCell id="di5l27wVPfo-70FuPS_U-88" value="&lt;span style=&quot;font-size: 11px;&quot;&gt;AbstractHandler.fifter(链路处理：主要处理初始化游戏的三大步骤。下图见详情)&lt;/span&gt;" style="edgeLabel;html=1;align=center;verticalAlign=middle;resizable=0;points=[];" vertex="1" connectable="0" parent="di5l27wVPfo-70FuPS_U-85">
          <mxGeometry x="-0.3258" y="-2" relative="1" as="geometry">
            <mxPoint x="150" y="-4" as="offset" />
          </mxGeometry>
        </mxCell>
        <mxCell id="di5l27wVPfo-70FuPS_U-92" value="&lt;div style=&quot;text-align: start;&quot;&gt;&lt;font face=&quot;monospace&quot; color=&quot;#ba0000&quot;&gt;&lt;span style=&quot;font-size: 0px;&quot;&gt;GameApiService&lt;/span&gt;&lt;/font&gt;&lt;br&gt;&lt;/div&gt;" style="shape=umlLifeline;perimeter=lifelinePerimeter;whiteSpace=wrap;html=1;container=1;collapsible=0;recursiveResize=0;outlineConnect=0;" vertex="1" parent="1">
          <mxGeometry x="177" y="-13" width="125" height="886" as="geometry" />
        </mxCell>
        <mxCell id="di5l27wVPfo-70FuPS_U-93" value="" style="html=1;points=[];perimeter=orthogonalPerimeter;" vertex="1" parent="di5l27wVPfo-70FuPS_U-92">
          <mxGeometry x="57.5" y="98" width="10" height="80" as="geometry" />
        </mxCell>
        <mxCell id="di5l27wVPfo-70FuPS_U-94" value="GameApiServiceImpl" style="text;whiteSpace=wrap;html=1;" vertex="1" parent="di5l27wVPfo-70FuPS_U-92">
          <mxGeometry x="7" y="6" width="118" height="36" as="geometry" />
        </mxCell>
        <mxCell id="di5l27wVPfo-70FuPS_U-95" value="" style="html=1;points=[];perimeter=orthogonalPerimeter;" vertex="1" parent="di5l27wVPfo-70FuPS_U-92">
          <mxGeometry x="57.5" y="210" width="10" height="224" as="geometry" />
        </mxCell>
        <mxCell id="di5l27wVPfo-70FuPS_U-126" value="&lt;span style=&quot;color: rgba(0, 0, 0, 0); font-family: monospace; font-size: 0px; text-align: start;&quot;&gt;%3CmxGraphModel%3E%3Croot%3E%3CmxCell%20id%3D%220%22%2F%3E%3CmxCell%20id%3D%221%22%20parent%3D%220%22%2F%3E%3CmxCell%20id%3D%222%22%20value%3D%22%22%20style%3D%22html%3D1%3Bpoints%3D%5B%5D%3Bperimeter%3DorthogonalPerimeter%3B%22%20vertex%3D%221%22%20parent%3D%221%22%3E%3CmxGeometry%20x%3D%22234.5%22%20y%3D%22191.5%22%20width%3D%2210%22%20height%3D%2280%22%20as%3D%22geometry%22%2F%3E%3C%2FmxCell%3E%3C%2Froot%3E%3C%2FmxGraphModel%3E&lt;/span&gt;" style="html=1;points=[];perimeter=orthogonalPerimeter;" vertex="1" parent="di5l27wVPfo-70FuPS_U-92">
          <mxGeometry x="53" y="680" width="11.5" height="147" as="geometry" />
        </mxCell>
        <mxCell id="di5l27wVPfo-70FuPS_U-104" value="&lt;div style=&quot;text-align: start;&quot;&gt;&lt;font face=&quot;monospace&quot; color=&quot;#ba0000&quot;&gt;&lt;span style=&quot;font-size: 0px;&quot;&gt;GameApiService&lt;/span&gt;&lt;/font&gt;&lt;br&gt;&lt;/div&gt;" style="shape=umlLifeline;perimeter=lifelinePerimeter;whiteSpace=wrap;html=1;container=1;collapsible=0;recursiveResize=0;outlineConnect=0;" vertex="1" parent="1">
          <mxGeometry x="404" y="-17" width="125" height="1241" as="geometry" />
        </mxCell>
        <mxCell id="di5l27wVPfo-70FuPS_U-106" value="GameService" style="text;whiteSpace=wrap;html=1;" vertex="1" parent="di5l27wVPfo-70FuPS_U-104">
          <mxGeometry x="7" y="6" width="118" height="36" as="geometry" />
        </mxCell>
        <mxCell id="di5l27wVPfo-70FuPS_U-107" value="" style="html=1;points=[];perimeter=orthogonalPerimeter;" vertex="1" parent="di5l27wVPfo-70FuPS_U-104">
          <mxGeometry x="57.5" y="204.5" width="10" height="80" as="geometry" />
        </mxCell>
        <mxCell id="di5l27wVPfo-70FuPS_U-113" style="edgeStyle=orthogonalEdgeStyle;rounded=0;orthogonalLoop=1;jettySize=auto;html=1;" edge="1" parent="di5l27wVPfo-70FuPS_U-104">
          <mxGeometry relative="1" as="geometry">
            <Array as="points">
              <mxPoint x="-142" y="237" />
            </Array>
            <mxPoint x="-151" y="237" as="sourcePoint" />
            <mxPoint x="54" y="237" as="targetPoint" />
          </mxGeometry>
        </mxCell>
        <mxCell id="di5l27wVPfo-70FuPS_U-114" value="&lt;span style=&quot;font-size: 12px;&quot;&gt;1.2.1.1 initGameDetail&lt;/span&gt;" style="edgeLabel;html=1;align=center;verticalAlign=middle;resizable=0;points=[];" vertex="1" connectable="0" parent="di5l27wVPfo-70FuPS_U-113">
          <mxGeometry x="-0.0588" y="2" relative="1" as="geometry">
            <mxPoint as="offset" />
          </mxGeometry>
        </mxCell>
        <mxCell id="di5l27wVPfo-70FuPS_U-122" value="" style="html=1;points=[];perimeter=orthogonalPerimeter;" vertex="1" parent="di5l27wVPfo-70FuPS_U-104">
          <mxGeometry x="57.5" y="750" width="10" height="113" as="geometry" />
        </mxCell>
        <mxCell id="di5l27wVPfo-70FuPS_U-165" value="" style="html=1;points=[];perimeter=orthogonalPerimeter;" vertex="1" parent="di5l27wVPfo-70FuPS_U-104">
          <mxGeometry x="57.5" y="1029" width="10" height="119" as="geometry" />
        </mxCell>
        <mxCell id="di5l27wVPfo-70FuPS_U-119" style="edgeStyle=orthogonalEdgeStyle;rounded=0;orthogonalLoop=1;jettySize=auto;html=1;entryX=-0.45;entryY=0.033;entryDx=0;entryDy=0;entryPerimeter=0;" edge="1" parent="1" source="di5l27wVPfo-70FuPS_U-107" target="di5l27wVPfo-70FuPS_U-24">
          <mxGeometry relative="1" as="geometry" />
        </mxCell>
        <mxCell id="di5l27wVPfo-70FuPS_U-120" value="&lt;span style=&quot;font-size: 12px;&quot;&gt;1.2.1.1.1 initGameDetail&lt;/span&gt;" style="edgeLabel;html=1;align=center;verticalAlign=middle;resizable=0;points=[];" vertex="1" connectable="0" parent="di5l27wVPfo-70FuPS_U-119">
          <mxGeometry x="-0.1849" y="2" relative="1" as="geometry">
            <mxPoint x="16" y="2" as="offset" />
          </mxGeometry>
        </mxCell>
        <mxCell id="di5l27wVPfo-70FuPS_U-124" style="edgeStyle=orthogonalEdgeStyle;rounded=0;orthogonalLoop=1;jettySize=auto;html=1;entryX=-0.25;entryY=0.213;entryDx=0;entryDy=0;entryPerimeter=0;" edge="1" parent="1" source="di5l27wVPfo-70FuPS_U-122" target="di5l27wVPfo-70FuPS_U-121">
          <mxGeometry relative="1" as="geometry">
            <Array as="points" />
          </mxGeometry>
        </mxCell>
        <mxCell id="di5l27wVPfo-70FuPS_U-125" value="&lt;span style=&quot;font-size: 12px;&quot;&gt;1.2.1.1.2&amp;nbsp;&lt;/span&gt;getGameDetail" style="edgeLabel;html=1;align=center;verticalAlign=middle;resizable=0;points=[];" vertex="1" connectable="0" parent="di5l27wVPfo-70FuPS_U-124">
          <mxGeometry x="-0.3774" relative="1" as="geometry">
            <mxPoint x="33" y="-1" as="offset" />
          </mxGeometry>
        </mxCell>
        <mxCell id="di5l27wVPfo-70FuPS_U-128" style="edgeStyle=orthogonalEdgeStyle;rounded=0;orthogonalLoop=1;jettySize=auto;html=1;entryX=-0.15;entryY=0.062;entryDx=0;entryDy=0;entryPerimeter=0;" edge="1" parent="1" source="di5l27wVPfo-70FuPS_U-126" target="di5l27wVPfo-70FuPS_U-122">
          <mxGeometry relative="1" as="geometry" />
        </mxCell>
        <mxCell id="di5l27wVPfo-70FuPS_U-130" value="&lt;span style=&quot;font-size: 12px;&quot;&gt;1.2.1.2&amp;nbsp;&lt;/span&gt;getGameDetail" style="edgeLabel;html=1;align=center;verticalAlign=middle;resizable=0;points=[];" vertex="1" connectable="0" parent="di5l27wVPfo-70FuPS_U-128">
          <mxGeometry x="-0.2723" y="-3" relative="1" as="geometry">
            <mxPoint as="offset" />
          </mxGeometry>
        </mxCell>
        <mxCell id="di5l27wVPfo-70FuPS_U-146" style="edgeStyle=orthogonalEdgeStyle;rounded=0;orthogonalLoop=1;jettySize=auto;html=1;" edge="1" parent="1" source="di5l27wVPfo-70FuPS_U-121" target="di5l27wVPfo-70FuPS_U-26">
          <mxGeometry relative="1" as="geometry">
            <Array as="points">
              <mxPoint x="744" y="785" />
              <mxPoint x="744" y="785" />
            </Array>
          </mxGeometry>
        </mxCell>
        <mxCell id="di5l27wVPfo-70FuPS_U-147" value="1.2.1.1.2.2 getOne&amp;nbsp;" style="edgeLabel;html=1;align=center;verticalAlign=middle;resizable=0;points=[];" vertex="1" connectable="0" parent="di5l27wVPfo-70FuPS_U-146">
          <mxGeometry x="0.4047" y="-2" relative="1" as="geometry">
            <mxPoint x="32" y="-3" as="offset" />
          </mxGeometry>
        </mxCell>
        <mxCell id="di5l27wVPfo-70FuPS_U-149" style="edgeStyle=orthogonalEdgeStyle;rounded=0;orthogonalLoop=1;jettySize=auto;html=1;entryX=-0.25;entryY=0.575;entryDx=0;entryDy=0;entryPerimeter=0;" edge="1" parent="1" source="di5l27wVPfo-70FuPS_U-121" target="di5l27wVPfo-70FuPS_U-148">
          <mxGeometry relative="1" as="geometry">
            <Array as="points">
              <mxPoint x="820" y="829" />
              <mxPoint x="820" y="829" />
            </Array>
          </mxGeometry>
        </mxCell>
        <mxCell id="di5l27wVPfo-70FuPS_U-150" value="1.2.1.1.2.3 list" style="edgeLabel;html=1;align=center;verticalAlign=middle;resizable=0;points=[];" vertex="1" connectable="0" parent="di5l27wVPfo-70FuPS_U-149">
          <mxGeometry x="0.599" y="-3" relative="1" as="geometry">
            <mxPoint x="1" as="offset" />
          </mxGeometry>
        </mxCell>
        <mxCell id="di5l27wVPfo-70FuPS_U-152" style="edgeStyle=orthogonalEdgeStyle;rounded=0;orthogonalLoop=1;jettySize=auto;html=1;entryX=0.25;entryY=0.353;entryDx=0;entryDy=0;entryPerimeter=0;" edge="1" parent="1" source="di5l27wVPfo-70FuPS_U-121" target="di5l27wVPfo-70FuPS_U-151">
          <mxGeometry relative="1" as="geometry">
            <mxPoint x="1420" y="831" as="targetPoint" />
            <Array as="points">
              <mxPoint x="877" y="872" />
              <mxPoint x="877" y="872" />
            </Array>
          </mxGeometry>
        </mxCell>
        <mxCell id="di5l27wVPfo-70FuPS_U-153" value="1.2.1.1.2.4 list&amp;nbsp;" style="edgeLabel;html=1;align=center;verticalAlign=middle;resizable=0;points=[];" vertex="1" connectable="0" parent="di5l27wVPfo-70FuPS_U-152">
          <mxGeometry x="0.7124" y="-3" relative="1" as="geometry">
            <mxPoint x="1" as="offset" />
          </mxGeometry>
        </mxCell>
        <mxCell id="di5l27wVPfo-70FuPS_U-157" value="" style="html=1;verticalAlign=bottom;endArrow=open;dashed=1;endSize=8;rounded=0;exitX=-0.05;exitY=0.888;exitDx=0;exitDy=0;exitPerimeter=0;" edge="1" parent="1" source="di5l27wVPfo-70FuPS_U-71">
          <mxGeometry x="-0.1715" y="-3" relative="1" as="geometry">
            <mxPoint x="1513" y="401" as="sourcePoint" />
            <mxPoint x="664" y="477" as="targetPoint" />
            <mxPoint as="offset" />
          </mxGeometry>
        </mxCell>
        <mxCell id="di5l27wVPfo-70FuPS_U-170" value="return（GameDetailDTO）" style="html=1;verticalAlign=bottom;endArrow=open;dashed=1;endSize=8;rounded=0;exitX=-0.15;exitY=0.925;exitDx=0;exitDy=0;exitPerimeter=0;fontStyle=1" edge="1" parent="1" source="di5l27wVPfo-70FuPS_U-159" target="di5l27wVPfo-70FuPS_U-104">
          <mxGeometry x="0.6139" y="-2" relative="1" as="geometry">
            <mxPoint x="1503" y="927" as="sourcePoint" />
            <mxPoint x="675" y="929" as="targetPoint" />
            <mxPoint as="offset" />
          </mxGeometry>
        </mxCell>
        <mxCell id="di5l27wVPfo-70FuPS_U-5" value="return" style="html=1;verticalAlign=bottom;endArrow=open;dashed=1;endSize=8;exitX=0;exitY=0.95;rounded=0;" edge="1" source="di5l27wVPfo-70FuPS_U-3" parent="1" target="di5l27wVPfo-70FuPS_U-1">
          <mxGeometry relative="1" as="geometry">
            <mxPoint x="-371" y="163" as="targetPoint" />
          </mxGeometry>
        </mxCell>
        <mxCell id="di5l27wVPfo-70FuPS_U-171" value="return" style="html=1;verticalAlign=bottom;endArrow=open;dashed=1;endSize=8;exitX=0;exitY=0.95;rounded=0;" edge="1" parent="1">
          <mxGeometry x="-1" y="450" relative="1" as="geometry">
            <mxPoint x="248" y="800" as="targetPoint" />
            <mxPoint x="456" y="800" as="sourcePoint" />
            <mxPoint x="346" y="-162" as="offset" />
          </mxGeometry>
        </mxCell>
        <mxCell id="di5l27wVPfo-70FuPS_U-173" value="&lt;meta charset=&quot;utf-8&quot;&gt;&lt;span style=&quot;color: rgb(0, 0, 0); font-family: Helvetica; font-size: 11px; font-style: normal; font-variant-ligatures: normal; font-variant-caps: normal; font-weight: 400; letter-spacing: normal; orphans: 2; text-align: center; text-indent: 0px; text-transform: none; widows: 2; word-spacing: 0px; -webkit-text-stroke-width: 0px; background-color: rgb(255, 255, 255); text-decoration-thickness: initial; text-decoration-style: initial; text-decoration-color: initial; float: none; display: inline !important;&quot;&gt;return&lt;/span&gt;" style="text;whiteSpace=wrap;html=1;" vertex="1" parent="1">
          <mxGeometry x="350" y="786" width="59" height="36" as="geometry" />
        </mxCell>
      </root>
    </mxGraphModel>
  </diagram>
</mxfile>
